<svg width="71" height="20" viewBox="0 0 71 20" fill="none" xmlns="http://www.w3.org/2000/svg">
<path d="M17.3333 6.06289C19.0273 6.06289 20.369 6.56604 21.3585 7.57233C22.3648 8.56184 22.8679 10.0545 22.8679 12.0503V19.7987H18.9434V12.6541C18.9434 11.5807 18.717 10.7841 18.2642 10.2642C17.8281 9.72746 17.1992 9.45912 16.3774 9.45912C15.4549 9.45912 14.7254 9.76101 14.1887 10.3648C13.652 10.9518 13.3836 11.8323 13.3836 13.0063V19.7987H9.45912V12.6541C9.45912 10.5241 8.60377 9.45912 6.89308 9.45912C5.98742 9.45912 5.26625 9.76101 4.72956 10.3648C4.19287 10.9518 3.92453 11.8323 3.92453 13.0063V19.7987H0V6.26415H3.74843V7.8239C4.25157 7.25367 4.86373 6.81761 5.58491 6.51572C6.32285 6.21384 7.12788 6.06289 8 6.06289C8.95597 6.06289 9.81971 6.25577 10.5912 6.64151C11.3627 7.01048 11.9832 7.55555 12.4528 8.27673C13.0063 7.57233 13.7023 7.02725 14.5409 6.64151C15.3962 6.25577 16.327 6.06289 17.3333 6.06289Z" fill="#364F6B"/>
<path d="M26.1939 6.26415H30.1185V19.7987H26.1939V6.26415ZM28.1562 4.37736C27.435 4.37736 26.848 4.16772 26.3952 3.74843C25.9424 3.32914 25.7159 2.80922 25.7159 2.18868C25.7159 1.56813 25.9424 1.04822 26.3952 0.628932C26.848 0.209644 27.435 0 28.1562 0C28.8774 0 29.4644 0.201258 29.9172 0.603775C30.37 1.00629 30.5964 1.50943 30.5964 2.11321C30.5964 2.7673 30.37 3.31237 29.9172 3.74843C29.4644 4.16772 28.8774 4.37736 28.1562 4.37736Z" fill="#364F6B"/>
<path d="M41.7955 6.06289C43.4726 6.06289 44.8227 6.56604 45.8458 7.57233C46.8856 8.57862 47.4055 10.0713 47.4055 12.0503V19.7987H43.481V12.6541C43.481 11.5807 43.2462 10.7841 42.7766 10.2642C42.307 9.72746 41.6278 9.45912 40.7389 9.45912C39.7494 9.45912 38.9611 9.76939 38.3741 10.3899C37.7871 10.9937 37.4936 11.8994 37.4936 13.1069V19.7987H33.5691V6.26415H37.3175V7.84906C37.8374 7.27883 38.4831 6.84277 39.2546 6.54088C40.0261 6.22222 40.873 6.06289 41.7955 6.06289Z" fill="#364F6B"/>
<path d="M57.3589 20C55.9333 20 54.6503 19.7065 53.5098 19.1195C52.3862 18.5157 51.5056 17.6855 50.8683 16.6289C50.231 15.5723 49.9124 14.3732 49.9124 13.0314C49.9124 11.6897 50.231 10.4906 50.8683 9.43396C51.5056 8.37736 52.3862 7.55556 53.5098 6.96855C54.6503 6.36478 55.9333 6.06289 57.3589 6.06289C58.7845 6.06289 60.0591 6.36478 61.1828 6.96855C62.3065 7.55556 63.187 8.37736 63.8243 9.43396C64.4616 10.4906 64.7803 11.6897 64.7803 13.0314C64.7803 14.3732 64.4616 15.5723 63.8243 16.6289C63.187 17.6855 62.3065 18.5157 61.1828 19.1195C60.0591 19.7065 58.7845 20 57.3589 20ZM57.3589 16.7799C58.3652 16.7799 59.187 16.4444 59.8243 15.7736C60.4784 15.086 60.8054 14.1719 60.8054 13.0314C60.8054 11.891 60.4784 10.9853 59.8243 10.3145C59.187 9.62683 58.3652 9.28302 57.3589 9.28302C56.3526 9.28302 55.5224 9.62683 54.8683 10.3145C54.2142 10.9853 53.8872 11.891 53.8872 13.0314C53.8872 14.1719 54.2142 15.086 54.8683 15.7736C55.5224 16.4444 56.3526 16.7799 57.3589 16.7799Z" fill="#364F6B"/>
<path d="M68.5241 20C67.8365 20 67.2579 19.7652 66.7883 19.2956C66.3187 18.826 66.0839 18.239 66.0839 17.5346C66.0839 16.8134 66.3187 16.2348 66.7883 15.7987C67.2579 15.3459 67.8365 15.1195 68.5241 15.1195C69.2118 15.1195 69.7904 15.3459 70.26 15.7987C70.7296 16.2348 70.9644 16.8134 70.9644 17.5346C70.9644 18.239 70.7296 18.826 70.26 19.2956C69.7904 19.7652 69.2118 20 68.5241 20Z" fill="#364F6B"/>
</svg>
