<svg width="100" height="100" viewBox="0 0 100 100" fill="none" xmlns="http://www.w3.org/2000/svg">
<g clip-path="url(#clip0_609_2112)">
<path d="M100 43.7416C100 41.4688 99.1148 39.3318 97.5076 37.7248L62.2754 2.49238C60.6682 0.885156 58.5314 0 56.2584 0C53.9854 0 51.8486 0.885156 50.2414 2.49219L42.8104 9.92324C42.0477 10.6859 42.0477 11.9227 42.8104 12.6854C43.5732 13.448 44.8096 13.448 45.5727 12.6854L53.0037 5.2543C53.873 4.38496 55.0289 3.90625 56.2584 3.90625C57.4879 3.90625 58.6437 4.38496 59.5131 5.25449L79.4717 25.2129L51.4902 53.1943L49.9074 47.2875C49.2576 44.8623 47.4215 43.0264 44.9963 42.3766C42.8551 41.8025 40.6506 42.2605 38.9416 43.5969L26.8012 31.4564L33.1428 25.1148C33.9055 24.3521 33.9055 23.1154 33.1428 22.3525C32.3799 21.5898 31.1436 21.5898 30.3805 22.3527L2.49238 50.2414C0.885156 51.8486 0 53.9855 0 56.2584C0 58.5312 0.885156 60.6682 2.49238 62.2752L37.7248 97.5076C39.332 99.1148 41.4688 100 43.7418 100C46.0148 100 48.1516 99.1148 49.7588 97.5078L97.508 49.7586C99.1148 48.1514 100 46.0145 100 43.7416ZM86.8889 32.6303L57.5355 61.9836C57.1342 60.9568 56.5211 59.9945 55.6932 59.1666C54.8668 58.3402 53.9066 57.7281 52.8824 57.3266L82.2338 27.9752L86.8889 32.6303ZM67.9283 73.8135L58.9643 82.7775C58.1873 83.5541 57.0898 83.848 56.0293 83.5639C54.968 83.2795 54.1646 82.4762 53.8803 81.415L51.6369 73.0426C53.1244 72.7174 54.5389 71.9799 55.6932 70.8258V70.8256C56.9352 69.5836 57.6951 68.0402 57.9773 66.4287L66.5654 68.7299C67.6268 69.0143 68.4299 69.8176 68.7143 70.8787C68.9986 71.9396 68.7047 73.0365 67.9283 73.8135ZM27.9752 82.2338L42.191 68.0182C42.6 69.0576 43.2205 70.0121 44.0342 70.8258C44.8623 71.6537 45.8246 72.2668 46.8512 72.6682L32.6303 86.8893L27.9752 82.2338ZM49.8639 60.6604C50.9746 60.6604 52.0855 61.0832 52.9311 61.9287C54.6223 63.6201 54.6223 66.3721 52.9311 68.0635C51.2402 69.7545 48.4877 69.7549 46.7965 68.0635C45.9771 67.2441 45.5258 66.1549 45.5258 64.9961C45.5258 63.8375 45.9771 62.7481 46.7965 61.9287C47.6422 61.083 48.7527 60.6604 49.8639 60.6604ZM43.9854 46.1498C45.0467 46.4342 45.85 47.2375 46.1344 48.2986L48.4342 56.8818C46.8217 57.1635 45.277 57.9236 44.0342 59.1664C42.9035 60.2971 42.1441 61.6986 41.8115 63.2242L33.4494 60.9836C32.3881 60.6992 31.5848 59.8959 31.3004 58.8346C31.016 57.7734 31.3102 56.676 32.0869 55.8992L41.05 46.9361C41.8268 46.1594 42.9244 45.8656 43.9854 46.1498ZM36.1412 46.3207L31.4859 50.976L19.3842 38.874L24.0395 34.2188L36.1412 46.3207ZM3.90625 56.2584C3.90625 55.0289 4.38496 53.873 5.25449 53.0035L16.6219 41.6361L28.7607 53.7752C27.4146 55.4865 26.9516 57.6979 27.5271 59.8457C28.177 62.2709 30.0129 64.1068 32.4383 64.7568L38.3451 66.3395L25.2129 79.4715L5.2543 59.5131C4.38496 58.6437 3.90625 57.4879 3.90625 56.2584ZM46.9963 94.7457C46.127 95.615 44.9711 96.0938 43.7416 96.0938C42.5121 96.0938 41.3563 95.615 40.4869 94.7455L35.3926 89.6512L48.5246 76.5189L50.1072 82.426C50.7145 84.692 52.3576 86.4428 54.5488 87.1932L46.9963 94.7457ZM94.7455 46.9965L72.3438 69.3982C71.5934 67.2068 69.8426 65.5639 67.5766 64.9566L61.6699 63.374L89.6514 35.3926L94.7459 40.4871C95.6152 41.3564 96.0939 42.5123 96.0939 43.7418C96.0938 44.9711 95.615 46.127 94.7455 46.9965Z" fill="#3FC1C9"/>
<path d="M37.9844 19.4785C38.498 19.4785 39 19.2695 39.3652 18.9062C39.7285 18.543 39.9375 18.0391 39.9375 17.5254C39.9375 17.0117 39.7287 16.5078 39.3652 16.1445C39.002 15.7813 38.498 15.5723 37.9844 15.5723C37.4688 15.5723 36.9668 15.7813 36.6016 16.1445C36.2385 16.5098 36.0312 17.0117 36.0312 17.5254C36.0312 18.0391 36.2383 18.543 36.6016 18.9062C36.9668 19.2695 37.4688 19.4785 37.9844 19.4785Z" fill="#3FC1C9"/>
</g>
<defs>
<clipPath id="clip0_609_2112">
<rect width="100" height="100" fill="white"/>
</clipPath>
</defs>
</svg>
