<svg width="100" height="100" viewBox="0 0 100 100" fill="none" xmlns="http://www.w3.org/2000/svg">
<g clip-path="url(#clip0_609_2110)">
<path d="M69.2195 67.2664H63.2256L60.1119 65.8807V62.1C64.4715 59.6982 67.8916 55.7943 69.6713 51.0906H72.3424C78.7031 51.0906 83.8781 45.9156 83.8781 39.5549C83.8781 35.4477 81.7188 31.8371 78.4773 29.7928V28.4773C78.4775 12.7748 65.7025 0 50 0C34.2975 0 21.5225 12.7748 21.5225 28.4775V29.792C18.2803 31.8363 16.1203 35.4471 16.1203 39.5549C16.1203 45.9156 21.2953 51.0906 27.6561 51.0906H30.3285C32.1082 55.7943 35.5283 59.6982 39.8879 62.1V65.865L36.7393 67.2662H30.7803C13.808 67.2664 0 81.0746 0 98.0469C0 99.1254 0.874414 100 1.95312 100H41.2109C42.2896 100 43.1641 99.1254 43.1641 98.0469C43.1641 96.9684 42.2896 96.0938 41.2109 96.0938H3.97637C4.9502 82.5961 15.9371 71.8297 29.5264 71.2023C29.5213 71.2188 29.5143 71.2344 29.5096 71.2508C29.3512 71.8074 29.4479 72.4055 29.7732 72.884L39.0125 86.4668C39.3398 86.948 39.8646 87.2582 40.4439 87.3129C40.5053 87.3186 40.5666 87.3215 40.6277 87.3215C41.1432 87.3215 41.6406 87.1174 42.0086 86.7494L49.9826 78.7754L57.9564 86.7494C58.3244 87.1174 58.8221 87.3215 59.3373 87.3215C59.3982 87.3215 59.4596 87.3186 59.5209 87.3129C60.1004 87.2582 60.6252 86.948 60.9525 86.4668L70.192 72.884C70.5174 72.4057 70.6139 71.8072 70.4557 71.2508C70.4508 71.2338 70.4437 71.218 70.4385 71.2012C84.0439 71.8115 95.049 82.5848 96.0236 96.0939H58.7891C57.7105 96.0939 56.8359 96.9686 56.8359 98.0471C56.8359 99.1256 57.7105 100 58.7891 100H98.0469C99.1254 100 100 99.1256 100 98.0471C100 81.0746 86.192 67.2664 69.2195 67.2664ZM67.0775 30.3939C63.0648 29.843 59.2992 28.2441 56.0998 25.7129C55.3984 25.1578 54.4092 25.1504 53.6992 25.6951C49.5035 28.9143 44.4844 30.6158 39.1848 30.6158C37.0578 30.6158 34.9605 30.3324 32.9291 29.7818V28.7889C32.9291 19.3764 40.5867 11.7188 49.9992 11.7188C59.4117 11.7188 67.0695 19.3764 67.0695 28.7889C67.0697 28.7889 67.0734 30.3416 67.0775 30.3939ZM72.3426 47.1846H71.0229V31.9254H72.3426C76.5496 31.9254 79.9721 35.3479 79.9721 39.5551C79.9721 43.7619 76.5496 47.1846 72.3426 47.1846ZM50 3.90625C63.4682 3.90625 74.4383 14.7986 74.5682 28.2367C73.8477 28.0953 73.1039 28.0191 72.3424 28.0191H70.9602C70.5535 16.808 61.308 7.8125 49.9992 7.8125C38.6904 7.8125 29.4449 16.808 29.0383 28.0191H27.6563C26.8953 28.0191 26.1521 28.0951 25.4318 28.2365C25.5619 14.7986 36.532 3.90625 50 3.90625ZM28.9758 47.1846H27.6563C23.4492 47.1846 20.0268 43.7619 20.0268 39.5549C20.0268 35.3479 23.4492 31.9252 27.6563 31.9252H28.976V47.1846H28.9758ZM32.882 43.6729V33.8018C34.9398 34.2799 37.0502 34.5221 39.1848 34.5221C44.8523 34.5221 50.2451 32.8492 54.8721 29.6695C58.5088 32.2328 62.6928 33.8242 67.1164 34.3348V43.7779C67.1053 45.6088 66.8053 47.3723 66.2598 49.0252H56.9328C56.1258 46.7432 53.9477 45.1033 51.393 45.1033H48.7783C45.5389 45.1033 42.9035 47.7389 42.9035 50.9783C42.9035 54.2178 45.5389 56.8533 48.7783 56.8533H51.393C53.9478 56.8533 56.126 55.2135 56.9328 52.9314H64.3914C61.3416 57.6562 56.0301 60.7906 50 60.7906C40.5611 60.7906 32.882 53.1117 32.882 43.6729ZM53.3619 50.9783C53.3619 52.0641 52.4789 52.9471 51.3932 52.9471H48.7785C47.693 52.9471 46.81 52.0641 46.81 50.9783C46.81 49.8926 47.693 49.0096 48.7785 49.0096H51.3932C52.4787 49.0096 53.3619 49.8926 53.3619 50.9783ZM50 64.6969C52.1594 64.6969 54.2434 64.3691 56.2057 63.7617V67.0277L49.9826 73.2508L43.7941 67.0625V63.7617C45.7566 64.3691 47.8406 64.6969 50 64.6969ZM40.915 82.3186L34.3178 72.6197L40.8982 69.6912L47.2203 76.0133L40.915 82.3186ZM59.05 82.3186L52.7447 76.0133L59.0668 69.6912L65.6475 72.6197L59.05 82.3186Z" fill="#3FC1C9"/>
<path d="M50 96.0938C49.4863 96.0938 48.9824 96.3025 48.6191 96.666C48.2559 97.0293 48.0469 97.5332 48.0469 98.0469C48.0469 98.5605 48.2557 99.0645 48.6191 99.4275C48.9824 99.7908 49.4863 100 50 100C50.5137 100 51.0176 99.791 51.3807 99.4275C51.7441 99.0645 51.9531 98.5605 51.9531 98.0469C51.9531 97.5332 51.7441 97.0293 51.3807 96.666C51.0176 96.3025 50.5137 96.0938 50 96.0938Z" fill="#3FC1C9"/>
</g>
<defs>
<clipPath id="clip0_609_2110">
<rect width="100" height="100" fill="white"/>
</clipPath>
</defs>
</svg>
