<svg width="100" height="100" viewBox="0 0 100 100" fill="none" xmlns="http://www.w3.org/2000/svg">
<g clip-path="url(#clip0_609_2111)">
<path d="M98.9887 21.6305L60.0421 0.24456C59.457 -0.0766372 58.7474 -0.0766372 58.1623 0.24456L43.4825 8.30501C43.1728 8.38664 42.8836 8.54228 42.6441 8.76582L19.2165 21.6305C18.5916 21.9731 18.2033 22.6292 18.2033 23.3425V49.2077C14.2513 50.4436 10.6296 52.6234 7.61828 55.6354C-0.230837 63.4838 -2.23203 75.4543 2.63858 85.4221C3.1116 86.391 4.28119 86.7931 5.25012 86.3193C6.21982 85.8455 6.62112 84.6759 6.1481 83.707C2.00992 75.2376 3.71051 65.0669 10.3801 58.3973C14.5511 54.2263 20.0962 51.9291 25.9944 51.9291C31.8927 51.9291 37.4378 54.2263 41.6088 58.3973C45.779 62.5675 48.0762 68.1125 48.0762 74.0108C48.0762 79.9091 45.779 85.4541 41.608 89.6251C34.9384 96.2947 24.7676 97.9953 16.2982 93.8571C15.3293 93.3834 14.1597 93.7854 13.6867 94.7544C13.2129 95.7241 13.6142 96.8936 14.5839 97.3667C18.2147 99.1413 22.1103 100.003 25.9777 100.003C32.7243 100.003 39.381 97.3766 44.3706 92.387C46.6587 90.0989 48.4668 87.4591 49.7463 84.5897L58.1623 89.2108C58.4552 89.3718 58.7787 89.4519 59.1022 89.4519C59.4257 89.4519 59.7499 89.3718 60.0421 89.2108L98.9887 67.8257C99.6135 67.4824 100.002 66.8262 100.002 66.1136V52.5402C100.002 51.4614 99.1275 50.5871 98.0487 50.5871C96.9699 50.5871 96.0956 51.4614 96.0956 52.5402V64.9578L61.0614 84.1953V45.8805L72.6238 39.5313V49.596C72.6238 50.2872 72.9884 50.9266 73.5828 51.2775C73.8895 51.4584 74.2328 51.5491 74.5769 51.5491C74.9004 51.5491 75.2246 51.469 75.5184 51.3073L83.8642 46.7136C84.4882 46.3703 84.875 45.7149 84.875 45.0031V32.8037L96.0956 26.643V36.916C96.0956 37.9948 96.9699 38.8691 98.0487 38.8691C99.1275 38.8691 100.002 37.9948 100.002 36.916V23.3425C100.002 22.6299 99.6135 21.9731 98.9887 21.6305ZM59.1022 4.18438L93.9906 23.3425L82.9852 29.3858L48.0968 10.2276L59.1022 4.18438ZM59.1022 42.4999L24.2137 23.3425L35.6227 17.0773L70.5119 36.2347L59.1022 42.4999ZM74.5693 34.0069L39.6808 14.8495L44.0387 12.4562L78.9279 31.6136L74.5693 34.0069ZM44.3706 55.6354C39.4618 50.7267 32.9357 48.0236 25.9944 48.0236C24.6814 48.0236 23.3844 48.1205 22.1096 48.3105V26.643L57.1559 45.8874V84.2022L51.073 80.862C51.6719 78.6571 51.9817 76.3576 51.9817 74.0108C51.9817 67.0696 49.2786 60.5434 44.3706 55.6354ZM80.9696 43.8488L76.53 46.2925V37.3867L80.9696 34.9491V43.8488Z" fill="#364F6B"/>
<path d="M98.0469 42.762C97.5334 42.762 97.0291 42.971 96.666 43.3342C96.3028 43.6973 96.0938 44.2009 96.0938 44.7151C96.0938 45.2285 96.3028 45.7321 96.666 46.0952C97.0291 46.4592 97.5334 46.6674 98.0469 46.6674C98.5604 46.6674 99.0647 46.4592 99.4278 46.0952C99.791 45.7321 100 45.2285 100 44.7151C100 44.2009 99.791 43.6973 99.4278 43.3342C99.0647 42.971 98.5604 42.762 98.0469 42.762Z" fill="#364F6B"/>
<path d="M19.4252 75.9607C19.9249 75.9607 20.4254 75.7699 20.8061 75.3892C21.5691 74.6263 21.5691 73.3896 20.8061 72.6266L19.4534 71.2732H30.9967C33.7967 71.2732 36.0748 73.5513 36.0748 76.3513C36.0748 79.1513 33.7967 81.4294 30.9967 81.4294H24.157C23.0782 81.4294 22.2038 82.3038 22.2038 83.3826C22.2038 84.4606 23.0782 85.335 24.157 85.335H30.9967C35.9505 85.335 39.9811 81.3051 39.9811 76.3513C39.9811 71.3975 35.9505 67.3676 30.9967 67.3676H19.4534L20.8061 66.0142C21.5691 65.2512 21.5691 64.0145 20.8061 63.2516C20.044 62.4894 18.8072 62.4894 18.0443 63.2516L13.3568 67.9391C12.5946 68.702 12.5946 69.9388 13.3568 70.7017L18.0443 75.3885C18.4258 75.7699 18.9255 75.9607 19.4252 75.9607Z" fill="#364F6B"/>
<path d="M8.99889 92.959C8.44348 92.959 7.89187 92.7225 7.50659 92.2639L7.50277 92.2594C6.8085 91.4338 6.91531 90.2025 7.74081 89.5082C8.56631 88.8131 9.79845 88.9199 10.4927 89.7454C11.1862 90.5717 11.0817 91.8054 10.2562 92.4997C9.88924 92.8079 9.44292 92.959 8.99889 92.959Z" fill="#364F6B"/>
</g>
<defs>
<clipPath id="clip0_609_2111">
<rect width="100" height="100" fill="white"/>
</clipPath>
</defs>
</svg>
