<svg width="100" height="100" viewBox="0 0 100 100" fill="none" xmlns="http://www.w3.org/2000/svg">
<path d="M9.76562 46.3005C8.68759 46.3005 7.8125 47.1756 7.8125 48.2537C7.8125 49.3325 8.68759 50.2068 9.76562 50.2068C10.8437 50.2068 11.7188 49.3325 11.7188 48.2537C11.7188 47.1756 10.8437 46.3005 9.76562 46.3005Z" fill="#364F6B"/>
<path d="M90.0238 47.184C84.2438 47.3168 78.3478 46.4218 72.5021 44.5236C63.4346 41.5787 54.0451 36.1282 45.0958 27.6047C42.9985 25.5982 39.7995 25.4295 37.5046 27.1919L30.8456 32.209C25.6706 36.1817 17.2958 36.4983 11.7805 32.9292L8.85315 31.0326C7.99179 30.4749 6.84586 30.6786 6.2294 31.4987C2.21252 36.8454 0 43.4723 0 50.1579V67.7849C0 68.8637 0.874328 69.738 1.95312 69.738H30.4688C31.5475 69.738 32.4219 68.8637 32.4219 67.7849V67.067C36.1 67.9871 41.1743 69.3878 47.554 71.2441C48.1056 71.3646 55.7388 73.9807 66.1751 73.9807C77.7527 73.9807 89.3402 70.8496 98.9563 65.789C99.5979 65.4518 100 64.7858 100 64.061V55.7655C100 52.3659 96.1273 47.0436 90.0238 47.184ZM72.8439 48.7167C78.6026 50.4212 84.404 51.2215 90.1131 51.0895C92.7254 51.0353 94.9631 52.6444 95.8069 54.9118C74.8505 67.9092 50.8102 59.9831 50.7912 59.9838C47.5105 59.0286 41.8831 57.3898 36.8324 56.0974C41.1446 51.7258 46.2387 52.9686 52.0218 54.3793C59.2529 56.144 66.9846 57.859 72.8439 48.7167ZM3.90625 50.1579C3.90625 44.9196 5.45959 39.7225 8.3107 35.3356L9.65729 36.2084C16.5848 40.6906 26.7159 40.303 33.21 35.318L39.8697 30.3009C40.6265 29.7196 41.713 29.7737 42.3988 30.4291C42.646 30.6656 42.9405 30.9563 43.4692 31.4537L41.9609 33.2504C41.2674 34.0767 41.3757 35.3088 42.202 36.0016C43.0328 36.6997 44.265 36.5822 44.9532 35.7613L46.3852 34.0553C47.2778 34.8106 48.2956 35.6361 49.4286 36.5036L47.9454 38.2721C47.2519 39.0984 47.3595 40.3305 48.1865 41.024C49.0166 41.7198 50.2472 41.6054 50.9377 40.7829L52.5925 38.81C53.624 39.5249 54.7211 40.2496 55.8807 40.9714L53.9314 43.2938C53.2379 44.1193 53.3455 45.3514 54.1718 46.0449C55.0034 46.743 56.2347 46.6255 56.9237 45.8046L59.2964 42.9779C62.2345 44.6053 65.4816 46.1487 68.9911 47.4403C64.6553 53.4401 59.4269 52.1652 52.9472 50.5844C45.3629 48.7335 38.3804 47.4632 32.5737 55.0644C29.7295 54.4251 27.7557 54.113 26.5625 54.113H3.90625V50.1579ZM96.0938 62.8677C70.6253 75.6264 48.9731 67.4896 48.6534 67.4957C47.3824 67.1265 31.8153 62.635 30.4688 62.635C29.39 62.635 28.5156 63.5101 28.5156 64.5882V65.8318H3.90625V58.0193H26.5625C30.2567 58.0193 46.1914 62.7129 49.6986 63.7337C49.7192 63.7375 72.3351 71.9833 96.0938 59.2339V62.8677Z" fill="#364F6B"/>
<path d="M28.5156 48.2537C28.5156 47.1756 27.6413 46.3005 26.5625 46.3005H17.5781C16.4993 46.3005 15.625 47.1756 15.625 48.2537C15.625 49.3325 16.4993 50.2068 17.5781 50.2068H26.5625C27.6413 50.2068 28.5156 49.3325 28.5156 48.2537Z" fill="#364F6B"/>
</svg>
